<svg xmlns="http://www.w3.org/2000/svg" width="26.989" height="18" viewBox="0 0 26.989 18">
  <path id="Icon_ionic-ios-arrow-round-back" data-name="Icon ionic-ios-arrow-round-back" d="M17.659,11.6a1.225,1.225,0,0,1,.009,1.725l-5.69,5.709H33.661a1.219,1.219,0,0,1,0,2.437H11.979l5.7,5.709a1.234,1.234,0,0,1-.009,1.725,1.214,1.214,0,0,1-1.715-.009L8.229,21.111h0a1.369,1.369,0,0,1-.253-.384,1.163,1.163,0,0,1-.094-.469,1.222,1.222,0,0,1,.347-.853l7.724-7.781A1.194,1.194,0,0,1,17.659,11.6Z" transform="translate(-7.882 -11.252)" fill="#fff"/>
</svg>
