<svg xmlns="http://www.w3.org/2000/svg" width="11.421" height="13.052" viewBox="0 0 11.421 13.052">
  <path id="Icon_awesome-calendar-alt" data-name="Icon awesome-calendar-alt" d="M0,11.829a1.224,1.224,0,0,0,1.224,1.224H10.2a1.224,1.224,0,0,0,1.224-1.224V4.895H0Zm8.158-5a.307.307,0,0,1,.306-.306h1.02a.307.307,0,0,1,.306.306v1.02a.307.307,0,0,1-.306.306H8.464a.307.307,0,0,1-.306-.306Zm0,3.263a.307.307,0,0,1,.306-.306h1.02a.307.307,0,0,1,.306.306v1.02a.307.307,0,0,1-.306.306H8.464a.307.307,0,0,1-.306-.306ZM4.895,6.832A.307.307,0,0,1,5.2,6.526H6.22a.307.307,0,0,1,.306.306v1.02a.307.307,0,0,1-.306.306H5.2a.307.307,0,0,1-.306-.306Zm0,3.263A.307.307,0,0,1,5.2,9.789H6.22a.307.307,0,0,1,.306.306v1.02a.307.307,0,0,1-.306.306H5.2a.307.307,0,0,1-.306-.306ZM1.632,6.832a.307.307,0,0,1,.306-.306h1.02a.307.307,0,0,1,.306.306v1.02a.307.307,0,0,1-.306.306H1.937a.307.307,0,0,1-.306-.306Zm0,3.263a.307.307,0,0,1,.306-.306h1.02a.307.307,0,0,1,.306.306v1.02a.307.307,0,0,1-.306.306H1.937a.307.307,0,0,1-.306-.306ZM10.2,1.632H8.973V.408A.409.409,0,0,0,8.566,0H7.75a.409.409,0,0,0-.408.408V1.632H4.079V.408A.409.409,0,0,0,3.671,0H2.855a.409.409,0,0,0-.408.408V1.632H1.224A1.224,1.224,0,0,0,0,2.855V4.079H11.421V2.855A1.224,1.224,0,0,0,10.2,1.632Z" fill="#0082eb"/>
</svg>
