<svg xmlns="http://www.w3.org/2000/svg" width="18.926" height="18.926" viewBox="0 0 18.926 18.926">
  <path id="Icon_awesome-phone-alt" data-name="Icon awesome-phone-alt" d="M18.386,13.374,14.246,11.6a.887.887,0,0,0-1.035.255l-1.833,2.24a13.7,13.7,0,0,1-6.55-6.55l2.24-1.833a.885.885,0,0,0,.255-1.035L5.548.537A.893.893,0,0,0,4.532.023L.688.91A.887.887,0,0,0,0,1.775,17.15,17.15,0,0,0,17.152,18.926a.887.887,0,0,0,.865-.688l.887-3.844a.9.9,0,0,0-.518-1.02Z" transform="translate(0 0)" fill="#fff"/>
</svg>
