<svg xmlns="http://www.w3.org/2000/svg" width="50" height="50" viewBox="0 0 50 50">
  <g id="Group_10683" data-name="Group 10683" transform="translate(-189 -371)">
    <circle id="Ellipse_456" data-name="Ellipse 456" cx="25" cy="25" r="25" transform="translate(189 371)" fill="#d81616"/>
    <path id="Icon_metro-cross" data-name="Icon metro-cross" d="M33.138,26.711h0l-9.358-9.358,9.358-9.358h0a.966.966,0,0,0,0-1.363L28.717,2.21a.967.967,0,0,0-1.363,0h0L18,11.568,8.637,2.21h0a.966.966,0,0,0-1.363,0L2.852,6.631a.966.966,0,0,0,0,1.363h0l9.358,9.358L2.852,26.711h0a.966.966,0,0,0,0,1.363l4.421,4.421a.966.966,0,0,0,1.363,0h0L18,23.136l9.358,9.358h0a.966.966,0,0,0,1.363,0l4.421-4.421a.966.966,0,0,0,0-1.363Z" transform="translate(196.006 378.648)" fill="#fff"/>
  </g>
</svg>
