<svg xmlns="http://www.w3.org/2000/svg" width="12.027" height="12.028" viewBox="0 0 12.027 12.028">
  <path id="Icon_simple-messenger" data-name="Icon simple-messenger" d="M0,5.833A5.8,5.8,0,0,1,6.012,0a5.8,5.8,0,0,1,6.013,5.833,5.8,5.8,0,0,1-6.013,5.833,6.563,6.563,0,0,1-1.739-.231.481.481,0,0,0-.321.025l-1.2.526a.481.481,0,0,1-.676-.426l-.035-1.072a.486.486,0,0,0-.16-.341A5.708,5.708,0,0,1,0,5.833Zm4.169-1.1L2.4,7.542a.282.282,0,0,0,.411.376l1.9-1.438a.354.354,0,0,1,.436,0l1.4,1.052a.9.9,0,0,0,1.3-.241L9.62,4.485a.283.283,0,0,0-.411-.376L7.31,5.547a.346.346,0,0,1-.431,0l-1.4-1.052a.9.9,0,0,0-1.308.241Z" transform="translate(0.002)" fill="#0082eb"/>
</svg>
