<svg xmlns="http://www.w3.org/2000/svg" width="17.915" height="17.913" viewBox="0 0 17.915 17.913">
  <g id="Group_10330" data-name="Group 10330" transform="translate(460.455 -256.679)">
    <path id="Path_17294" data-name="Path 17294" d="M-452.564,265.657c-.148-.117-.246-.18-.325-.259q-3.117-3.114-6.233-6.229a.81.81,0,0,1-.274-.912.763.763,0,0,1,1.194-.344,2.685,2.685,0,0,1,.246.234q3.083,3.083,6.163,6.168a2.368,2.368,0,0,1,.211.289c.137-.128.22-.2.3-.28l6.187-6.188a2.816,2.816,0,0,1,.223-.214.759.759,0,0,1,1.015.039.761.761,0,0,1,.073,1.037,2.845,2.845,0,0,1-.234.246l-6.164,6.167c-.079.079-.154.161-.242.254.088.093.162.175.241.254q3.115,3.117,6.231,6.231a.822.822,0,0,1,.29.909.763.763,0,0,1-1.187.369,2.354,2.354,0,0,1-.247-.233q-3.072-3.072-6.142-6.145c-.087-.087-.161-.188-.263-.308-.11.105-.191.179-.268.256q-3.127,3.126-6.251,6.255a.814.814,0,0,1-.911.281.762.762,0,0,1-.355-1.191,2.528,2.528,0,0,1,.233-.247q3.082-3.084,6.165-6.166C-452.807,265.851-452.715,265.784-452.564,265.657Z" transform="translate(0 0)" fill="none" stroke="#0082eb" stroke-width="2"/>
  </g>
</svg>
