<svg xmlns="http://www.w3.org/2000/svg" width="18.921" height="23.664" viewBox="0 0 18.921 23.664">
  <g id="Icon_ionic-ios-notifications" data-name="Icon ionic-ios-notifications" transform="translate(0 0)">
    <path id="Path_40" data-name="Path 40" d="M17.455,31.471c1.839,0,2.845-1.3,2.845-3.135H14.6C14.6,30.169,15.609,31.471,17.455,31.471Z" transform="translate(-8.006 -7.806)" fill="#fff"/>
    <path id="Path_41" data-name="Path 41" d="M25.442,21.455c-.911-1.2-2.7-1.9-2.7-7.281,0-5.518-2.437-7.736-4.708-8.269-.213-.053-.367-.124-.367-.349V5.385a1.443,1.443,0,1,0-2.886,0v.172c0,.219-.154.3-.367.349C12.134,6.444,9.7,8.656,9.7,14.175c0,5.376-1.792,6.074-2.7,7.281a1.174,1.174,0,0,0,.94,1.881H24.507A1.174,1.174,0,0,0,25.442,21.455Z" transform="translate(-6.761 -3.93)" fill="#fff"/>
  </g>
</svg>
