<svg width="50" height="50" viewBox="0 0 50 50" fill="none" xmlns="http://www.w3.org/2000/svg">
<g clip-path="url(#clip0_3_360)">
<path fill-rule="evenodd" clip-rule="evenodd" d="M50 25C50 38.8071 38.8071 50 25 50C11.1929 50 0 38.8071 0 25C0 11.1929 11.1929 0 25 0C38.8071 0 50 11.1929 50 25ZM38.5607 16.7467C39.1464 16.1609 39.1464 15.2111 38.5607 14.6253C37.9749 14.0396 37.0251 14.0396 36.4393 14.6253L21 30.0647L14.5607 23.6253C13.9749 23.0396 13.0251 23.0396 12.4393 23.6253C11.8536 24.2111 11.8536 25.1609 12.4393 25.7467L19.9393 33.2467C20.5251 33.8325 21.4749 33.8325 22.0607 33.2467L38.5607 16.7467Z" fill="#11A811"/>
</g>
<defs>
<clipPath id="clip0_3_360">
<rect width="50" height="50" fill="white"/>
</clipPath>
</defs>
</svg>
