<svg xmlns="http://www.w3.org/2000/svg" width="39.643" height="34.688" viewBox="0 0 39.643 34.688">
  <path id="Icon_awesome-wallet" data-name="Icon awesome-wallet" d="M35.71,9.683H6.194a1.239,1.239,0,0,1,0-2.478H35.927a1.239,1.239,0,0,0,1.239-1.239A3.717,3.717,0,0,0,33.449,2.25H4.955A4.955,4.955,0,0,0,0,7.205V31.983a4.955,4.955,0,0,0,4.955,4.955H35.71a3.833,3.833,0,0,0,3.933-3.717V13.4A3.833,3.833,0,0,0,35.71,9.683Zm-3.5,16.105a2.478,2.478,0,1,1,2.478-2.478A2.478,2.478,0,0,1,32.21,25.788Z" transform="translate(0 -2.25)" fill="#fff"/>
</svg>
