<svg xmlns="http://www.w3.org/2000/svg" width="21.893" height="21.904" viewBox="0 0 21.893 21.904">
  <g id="Group_10344" data-name="Group 10344" transform="translate(517.968 160.598)">
    <path id="Path_17302" data-name="Path 17302" d="M-506.891-156.727H-517c-.649,0-.974-.236-.964-.7.01-.444.331-.674.95-.674h10.136a3.234,3.234,0,0,1,2.016-2.293,3.148,3.148,0,0,1,4.094,1.912.492.492,0,0,0,.574.39c1.125-.021,2.251-.031,3.375.011a.938.938,0,0,1,.659.415.764.764,0,0,1-.1.685.908.908,0,0,1-.637.24c-1.139.023-2.279.014-3.418.008a.342.342,0,0,0-.4.267,3.141,3.141,0,0,1-3.052,2.232,3.175,3.175,0,0,1-3.049-2.3C-506.839-156.587-506.859-156.64-506.891-156.727Zm4.943-.669a1.8,1.8,0,0,0-1.807-1.821,1.809,1.809,0,0,0-1.813,1.777,1.8,1.8,0,0,0,1.79,1.839A1.788,1.788,0,0,0-501.947-157.4Z" transform="translate(0 0)" fill="#fff"/>
    <path id="Path_17303" data-name="Path 17303" d="M-507.154-65.671c-.051.15-.092.284-.141.414a3.177,3.177,0,0,1-3,2.077,3.129,3.129,0,0,1-2.975-2.1.489.489,0,0,0-.562-.4c-1.1.026-2.194.012-3.291.009-.534,0-.848-.263-.844-.691s.312-.676.856-.677q1.688,0,3.377,0c.192,0,.322,0,.408-.249a3.141,3.141,0,0,1,3.086-2.244,3.169,3.169,0,0,1,3.013,2.29c.018.054.038.107.072.2h10.064a3.624,3.624,0,0,1,.384.006.683.683,0,0,1,.631.685.683.683,0,0,1-.642.674c-.127.013-.256,0-.384,0h-10.055Zm-3.131,1.121a1.8,1.8,0,0,0,1.813-1.816,1.8,1.8,0,0,0-1.79-1.8,1.79,1.79,0,0,0-1.831,1.794A1.793,1.793,0,0,0-510.285-64.549Z" transform="translate(-0.003 -83.283)" fill="#fff"/>
    <path id="Path_17304" data-name="Path 17304" d="M-506.886,23.876c.053-.152.1-.285.145-.416a3.181,3.181,0,0,1,3-2.08,3.111,3.111,0,0,1,2.975,2.093.517.517,0,0,0,.6.411c1.082-.021,2.165-.01,3.248-.007.542,0,.85.253.848.682s-.318.685-.853.686q-1.688,0-3.376,0c-.188,0-.324,0-.413.243a3.131,3.131,0,0,1-3.126,2.243,3.191,3.191,0,0,1-2.987-2.327c-.014-.04-.03-.08-.059-.159h-10.064a2.642,2.642,0,0,1-.426-.013.675.675,0,0,1-.584-.725.649.649,0,0,1,.639-.626c.127-.012.256-.005.384-.005h10.049Zm3.135-1.125a1.8,1.8,0,0,0-1.811,1.818,1.808,1.808,0,0,0,1.792,1.8,1.8,1.8,0,0,0,1.828-1.8A1.789,1.789,0,0,0-503.751,22.751Z" transform="translate(-0.005 -166.425)" fill="#fff"/>
  </g>
</svg>
