<svg xmlns="http://www.w3.org/2000/svg" width="17.074" height="14.206" viewBox="0 0 17.074 14.206">
  <g id="Icon_feather-camera" data-name="Icon feather-camera" transform="translate(0.65 0.65)">
    <path id="Path_59" data-name="Path 59" d="M17.274,15.972a1.434,1.434,0,0,1-1.434,1.434H2.934A1.434,1.434,0,0,1,1.5,15.972V8.085A1.434,1.434,0,0,1,2.934,6.651H5.8L7.236,4.5h4.3l1.434,2.151H15.84a1.434,1.434,0,0,1,1.434,1.434Z" transform="translate(-1.5 -4.5)" fill="none" stroke="#fff" stroke-linecap="round" stroke-linejoin="round" stroke-width="1.3"/>
    <path id="Path_60" data-name="Path 60" d="M17.736,16.368A2.868,2.868,0,1,1,14.868,13.5,2.868,2.868,0,0,1,17.736,16.368Z" transform="translate(-6.981 -9.198)" fill="none" stroke="#fff" stroke-linecap="round" stroke-linejoin="round" stroke-width="1.3"/>
  </g>
</svg>
