<svg xmlns="http://www.w3.org/2000/svg" width="13" height="11" viewBox="0 0 13 11">
  <g id="Group_10174" data-name="Group 10174" transform="translate(-1717.239 913.323)">
    <path id="Path_17273" data-name="Path 17273" d="M1726.922-913.323v.882c0,.554,0,1.108,0,1.662a.872.872,0,0,0,.911.95c.786,0,1.571,0,2.394,0v.295c0,1.742-.021,3.485.009,5.226.015.828-.448,1.121-1.131.988,0-.473-.005-.952.006-1.431,0-.077.078-.152.122-.226a2.258,2.258,0,0,0,.042-2.471,1.947,1.947,0,0,0-2.083-1.014,2.058,2.058,0,0,0-1.75,1.67,2.307,2.307,0,0,0,.3,1.816,1.032,1.032,0,0,1,.136.464c.019.4.006.8.006,1.222h-7.738c-.667,0-.914-.263-.914-.971q0-4.061,0-8.121c0-.676.249-.941.887-.941h8.8Zm-.988,2.38h-7.1v.784h7.1Zm-7.1,3.381h6.01v-.419h-6.01Zm0,1.419h3.532v-.415h-3.532Z" fill="#0082eb"/>
    <path id="Path_17274" data-name="Path 17274" d="M1886.114-813.174a1.677,1.677,0,0,1,1.655-1.7,1.679,1.679,0,0,1,1.69,1.638,1.673,1.673,0,0,1-1.631,1.719A1.669,1.669,0,0,1,1886.114-813.174Z" transform="translate(-160.269 -93.061)" fill="#0082eb"/>
    <path id="Path_17275" data-name="Path 17275" d="M1916.333-911.95l2.772,2.773a1.424,1.424,0,0,1-.164.016c-.687,0-1.374,0-2.061,0-.4,0-.546-.151-.547-.549C1916.332-910.455,1916.333-911.2,1916.333-911.95Z" transform="translate(-188.968 -1.304)" fill="#0082eb"/>
    <path id="Path_17276" data-name="Path 17276" d="M1898.709-746.321v1.978c-.342-.135-.662-.272-.989-.386a.535.535,0,0,0-.328,0c-.329.115-.65.253-.993.389v-1.976A2.2,2.2,0,0,0,1898.709-746.321Z" transform="translate(-170.037 -157.981)" fill="#0082eb"/>
  </g>
</svg>
