<svg xmlns="http://www.w3.org/2000/svg" width="12" height="9" viewBox="0 0 12 9">
  <path id="Icon_awesome-money-bill-wave-alt" data-name="Icon awesome-money-bill-wave-alt" d="M11.647,2.7A5.23,5.23,0,0,0,9.464,2.25C7.155,2.25,4.845,3.5,2.536,3.5A5.339,5.339,0,0,1,.8,3.227.6.6,0,0,0,.6,3.194a.618.618,0,0,0-.6.639v6.374a.643.643,0,0,0,.353.592,5.227,5.227,0,0,0,2.183.451C4.845,11.25,7.155,10,9.464,10a5.339,5.339,0,0,1,1.737.276.6.6,0,0,0,.194.033.618.618,0,0,0,.6-.639V3.293A.644.644,0,0,0,11.647,2.7ZM6,8.679A1.755,1.755,0,0,1,4.5,6.75,1.755,1.755,0,0,1,6,4.821,1.755,1.755,0,0,1,7.5,6.75,1.755,1.755,0,0,1,6,8.679Z" transform="translate(0 -2.25)" fill="#0082eb"/>
</svg>
