<svg xmlns="http://www.w3.org/2000/svg" width="14" height="12" viewBox="0 0 14 12">
  <g id="Group_10170" data-name="Group 10170" transform="translate(-894.565 156.913)">
    <path id="Path_17260" data-name="Path 17260" d="M901.566-156.913c.089.028.185.055.279.089l6.307,2.321c.217.08.414.181.413.462s-.193.378-.413.46q-3.139,1.162-6.274,2.335a.845.845,0,0,1-.633,0q-3.134-1.175-6.274-2.335c-.222-.082-.409-.185-.406-.464s.185-.368.4-.445q3.18-1.17,6.358-2.343C901.4-156.865,901.475-156.885,901.566-156.913Z" transform="translate(0 0)" fill="#0082eb"/>
    <path id="Path_17261" data-name="Path 17261" d="M947.212-66.529c.173.061.314.107.454.16,1,.381,1.994.757,2.986,1.151a1.4,1.4,0,0,0,1.08,0c1.034-.407,2.073-.8,3.111-1.2.1-.038.2-.072.326-.118,0,.692.039,1.358-.022,2.013a.921.921,0,0,1-.463.606,7.839,7.839,0,0,1-1.683.64,8.148,8.148,0,0,1-4.393-.207,4.954,4.954,0,0,1-1-.5.858.858,0,0,1-.4-.814C947.224-65.357,947.212-65.927,947.212-66.529Z" transform="translate(-49.631 -85.348)" fill="#0082eb"/>
    <path id="Path_17262" data-name="Path 17262" d="M1111.29-79V-76.7c0,.286,0,.571,0,.857a.965.965,0,0,0,.249.821.772.772,0,0,1-.081,1.1.489.489,0,0,0-.171.417c.007.581,0,1.161,0,1.742,0,.324-.178.528-.439.521s-.416-.2-.418-.513c0-.6.007-1.2-.008-1.8a.539.539,0,0,0-.146-.332.887.887,0,0,1-.007-1.279.577.577,0,0,0,.153-.358c.012-.971.015-1.942,0-2.913,0-.223.066-.324.275-.376C1110.891-78.851,1111.075-78.93,1111.29-79Z" transform="translate(-203.75 -73.679)" fill="#0082eb"/>
  </g>
</svg>
