<svg xmlns="http://www.w3.org/2000/svg" width="13" height="12" viewBox="0 0 13 12">
  <g id="Group_10171" data-name="Group 10171" transform="translate(-1342.619 447.703)">
    <path id="Path_17263" data-name="Path 17263" d="M1351.812-406.016v.749c.305,0,.6,0,.891,0a1.812,1.812,0,0,1,.3.014.345.345,0,0,1,.314.362.345.345,0,0,1-.321.356,1.675,1.675,0,0,1-.253.011h-7.311c-.338,0-.524-.135-.523-.372s.189-.37.525-.371c.32,0,.641,0,.981,0v-.749h-.278q-1.51,0-3.021,0c-.378,0-.5-.12-.5-.488q0-3.881,0-7.761c0-.37.124-.495.5-.5.337,0,.673,0,1.025,0a1.244,1.244,0,0,0,1.09,1.158.3.3,0,0,1,.267.362,6.141,6.141,0,0,0,0,.766,1.037,1.037,0,0,0,.7.974c.839.328,1.685.637,2.529.952a1.222,1.222,0,0,0,.89-.035c.787-.3,1.577-.591,2.363-.891.121-.046.2-.06.3.053a1.1,1.1,0,0,0,1.242.312,1.085,1.085,0,0,0,.752-1.068c.011-.758,0-1.516,0-2.274v-.3c.356,0,.691-.014,1.024.006a.337.337,0,0,1,.312.337,1.539,1.539,0,0,1,0,.173q0,3.844,0,7.687c0,.431-.106.532-.557.533h-3.25Zm-1.157-1.851h-1.04c-.659,0-1.319,0-1.978,0-.26,0-.424.144-.427.358a.393.393,0,0,0,.414.38c.042,0,.084,0,.127,0h5.808c.338,0,.524-.131.53-.368s-.179-.372-.516-.372Zm-.023-.751q1.445,0,2.891,0a1.228,1.228,0,0,0,.276-.022.338.338,0,0,0,.285-.359.344.344,0,0,0-.325-.35,1.661,1.661,0,0,0-.228-.008h-5.756a1.65,1.65,0,0,0-.253.01.31.31,0,0,0-.3.338.672.672,0,0,0,.25.355c.062.052.194.035.294.036Q1349.2-408.615,1350.632-408.617Zm-4.2.362c0-.23,0-.461,0-.691-.006-.277-.135-.406-.421-.409q-.722-.009-1.444,0a.374.374,0,0,0-.42.416q-.008.691,0,1.382a.383.383,0,0,0,.415.428q.734.014,1.469,0a.369.369,0,0,0,.4-.409C1346.439-407.778,1346.435-408.016,1346.435-408.255Z" transform="translate(0 -31.18)" fill="#0082eb"/>
    <path id="Path_17264" data-name="Path 17264" d="M1395.506-445.384c-1.108.4-2.169.777-3.226,1.166a.826.826,0,0,1-.621,0q-1.706-.66-3.421-1.3c-.2-.076-.37-.178-.365-.435s.168-.34.361-.412c1.15-.43,2.3-.872,3.449-1.291a.866.866,0,0,1,.544-.009c1.222.421,2.435.869,3.654,1.3a.5.5,0,0,1,.369.547c-.007.854,0,1.707,0,2.561,0,.036,0,.071,0,.107-.02.262-.177.433-.389.424a.388.388,0,0,1-.349-.433c-.006-.631,0-1.263,0-1.894Z" transform="translate(-42.839)" fill="#0082eb"/>
    <path id="Path_17265" data-name="Path 17265" d="M1420.275-383.859a4.443,4.443,0,0,1-.013.777.536.536,0,0,1-.278.343c-.838.341-1.684.661-2.533.974a.6.6,0,0,1-.381-.005c-.84-.311-1.674-.637-2.511-.957a.419.419,0,0,1-.3-.424v-.739c.1.03.19.051.273.08.746.259,1.493.513,2.235.782a1.436,1.436,0,0,0,.988.009C1418.578-383.3,1419.4-383.57,1420.275-383.859Z" transform="translate(-68.152 -60.668)" fill="#0082eb"/>
    <path id="Path_17266" data-name="Path 17266" d="M1387.975-289.319v-.773h.771v.773Z" transform="translate(-43.061 -149.769)" fill="#0082eb"/>
  </g>
</svg>
