<svg xmlns="http://www.w3.org/2000/svg" width="12" height="15" viewBox="0 0 12 15">
  <g id="Group_10165" data-name="Group 10165" transform="translate(-1023.586 -237.096)">
    <path id="Path_17257" data-name="Path 17257" d="M1028.913,238.452c0-.235-.007-.435,0-.635a.673.673,0,1,1,1.341.007c.008.2,0,.4,0,.628h.37c.989,0,1.978-.007,2.967,0a2.008,2.008,0,0,1,1.986,2.035q.013,2.733,0,5.466A2,2,0,0,1,1033.6,248c-.343.008-.686,0-1.083,0,.037.123.063.218.095.311q.451,1.343.9,2.685c.179.533.045.92-.362,1.059-.429.146-.761-.074-.94-.624-.338-1.04-.68-2.078-1.006-3.121-.07-.224-.162-.321-.41-.315-.822.018-1.644.014-2.467,0a.307.307,0,0,0-.351.261c-.333,1.086-.681,2.167-1.019,3.251a.709.709,0,0,1-.591.578.644.644,0,0,1-.741-.905c.3-.951.615-1.9.922-2.847.032-.1.056-.2.094-.333-.351,0-.67,0-.99,0a2.01,2.01,0,0,1-2.066-2.113q0-2.669,0-5.338a2.014,2.014,0,0,1,2.057-2.093c.968,0,1.936,0,2.9,0Zm.706,5.453c-.874,0-1.748-.006-2.622,0a.675.675,0,0,0-.728.785.686.686,0,0,0,.77.584c1.321,0,2.643,0,3.964,0,.406,0,.812.011,1.217,0a.674.674,0,0,0,.676-.831.689.689,0,0,0-.749-.536C1031.3,243.9,1030.462,243.905,1029.619,243.905Zm-1.349-1.361c.426,0,.851.006,1.277,0a.676.676,0,0,0,.705-.688.666.666,0,0,0-.692-.664q-1.308-.011-2.616,0a.642.642,0,0,0-.681.666.661.661,0,0,0,.7.686C1027.4,242.55,1027.834,242.544,1028.27,242.544Z" transform="translate(0 0)" fill="#0082eb"/>
  </g>
</svg>
