<svg id="Group_10166" data-name="Group 10166" xmlns="http://www.w3.org/2000/svg" width="11" height="14" viewBox="0 0 11 14">
  <path id="Path_17234" data-name="Path 17234" d="M588.276,211.8c-1.03,0-2.06.005-3.09,0a3.464,3.464,0,0,1-.765-.08,2.01,2.01,0,0,1-1.624-1.9,6.4,6.4,0,0,1,.634-3.487,2.33,2.33,0,0,1,2.091-1.36,1.41,1.41,0,0,1,.623.179c.376.184.72.437,1.1.6a2.781,2.781,0,0,0,2.587-.243,2.682,2.682,0,0,0,.388-.253,1.41,1.41,0,0,1,1.409-.2,2.413,2.413,0,0,1,1.5,1.292,6.424,6.424,0,0,1,.6,3.619,2.089,2.089,0,0,1-2.162,1.821c-1.1.016-2.2,0-3.3,0Z" transform="translate(-582.775 -197.8)" fill="#0082eb"/>
  <path id="Path_17235" data-name="Path 17235" d="M626.322,84.269a3.168,3.168,0,1,1,3.154,3.189A3.164,3.164,0,0,1,626.322,84.269Z" transform="translate(-624.07 -81.085)" fill="#0082eb"/>
</svg>
