<svg xmlns="http://www.w3.org/2000/svg" width="14.002" height="14" viewBox="0 0 14.002 14">
  <g id="Group_10172" data-name="Group 10172" transform="translate(0 0)">
    <path id="Path_17272" data-name="Path 17272" d="M1834.836-163.391a1.537,1.537,0,0,0-1.4-1.5c-.508-.049-.609-.124-.633-.631-.02-.419.008-.841.023-1.261.012-.274.164-.4.441-.415a1.558,1.558,0,0,0,1.492-.976,1.506,1.506,0,0,0-.3-1.633c-.281-.318-.293-.462,0-.774s.613-.625.938-.918a.4.4,0,0,1,.633.013,1.537,1.537,0,0,0,1.7.358,1.5,1.5,0,0,0,.969-1.459.394.394,0,0,1,.422-.434c.48-.007.965-.007,1.449.006a.38.38,0,0,1,.391.43,1.513,1.513,0,0,0,.957,1.5,1.541,1.541,0,0,0,1.719-.36.4.4,0,0,1,.625,0c.324.3.637.607.93.931.277.305.262.438-.016.754a1.545,1.545,0,0,0,.75,2.555,1.168,1.168,0,0,0,.16.031c.637.081.7.133.723.783a8.794,8.794,0,0,1-.031,1.014c-.031.424-.121.493-.539.515a1.55,1.55,0,0,0-1.332,2.276,1.824,1.824,0,0,0,.273.375c.227.263.242.433,0,.693-.289.315-.594.62-.914.908-.3.28-.441.265-.75-.012a1.554,1.554,0,0,0-2.211.1,1.585,1.585,0,0,0-.4,1.028c-.016.326-.117.451-.445.465-.453.02-.91.017-1.367,0-.34-.015-.437-.142-.453-.485a1.532,1.532,0,0,0-1.184-1.52,1.563,1.563,0,0,0-1.426.379c-.309.27-.457.285-.75.008-.309-.286-.6-.587-.887-.9-.254-.282-.238-.428.016-.712A1.565,1.565,0,0,0,1834.836-163.391Zm7.121.765c-.535-.535-1.059-1.045-1.562-1.57a.421.421,0,0,0-.5-.124,2.467,2.467,0,0,1-3.105-2.9.45.45,0,0,1,.215-.306.454.454,0,0,1,.348.139c.316.291.617.6.914.909a.516.516,0,0,0,.5.184c.875-.136.691,0,.832-.806a.524.524,0,0,0-.172-.534c-.324-.3-.625-.616-.93-.931-.246-.252-.184-.476.152-.547a2.369,2.369,0,0,1,2.348.714,2.39,2.39,0,0,1,.563,2.443.355.355,0,0,0,.109.421c.262.245.508.5.758.755.27.271.535.542.809.818a4.038,4.038,0,0,0-.9-5.21,4.035,4.035,0,0,0-5.41.276,4.076,4.076,0,0,0-.25,5.449A4.019,4.019,0,0,0,1841.957-162.626Z" transform="translate(-1832.794 173.025)" fill="#0082eb"/>
  </g>
</svg>
